<svg id="Layer_1" data-name="Layer 1" xmlns="http://www.w3.org/2000/svg" viewBox="0 0 88.4 74.88"><defs><style>.cls-1{fill:#12406a;}</style></defs><path class="cls-1" d="M95.8,43.61a.53.53,0,0,0,0-.58.56.56,0,0,0-.56-.2A8.75,8.75,0,0,0,91.33,45,4.42,4.42,0,0,1,90,44.27c-1.37-1.06-2.82-3.66-4.21-7.5a11.77,11.77,0,0,0-1.87-6,.56.56,0,0,0-.68-.18.54.54,0,0,0-.31.62s.67,2.75,1.76,5.79a8.42,8.42,0,0,1-.83,3.52c-.05-.18-.11-.36-.17-.53-.18-.51-.36-1-.56-1.49a39.24,39.24,0,0,0-2-4.08.53.53,0,0,0,.37-.27.54.54,0,0,0-.17-.71s-.2-.14-.54-.34a4.3,4.3,0,0,1-1.48-2.82,2.1,2.1,0,0,1,.3-1.61A3.09,3.09,0,0,0,82.1,27a.53.53,0,0,0-.06-.59.54.54,0,0,0-.55-.2,5.43,5.43,0,0,0-2.24,1.22,2.94,2.94,0,0,1-.57-.34c-.75-.59-1.56-2-2.34-4.2a7.06,7.06,0,0,0-1.13-3.59.55.55,0,0,0-1,.45,33.4,33.4,0,0,0,1,3.33,4.79,4.79,0,0,1-.79,2.51A34.48,34.48,0,0,0,71.6,23a36.32,36.32,0,0,0-3.36-2.38l-.12-.07c-.37-.23-.74-.46-1.12-.68a37.52,37.52,0,0,0-18.23-5l-1.05,0h-.09v0a37.56,37.56,0,0,0-18.24,5c-.38.22-.75.45-1.12.68l-.12.07A37.72,37.72,0,0,0,24.79,23a39.61,39.61,0,0,0-4.4,4.09c-.29.33-.59.66-.87,1-.55.65-1.08,1.31-1.59,2s-.82,1.14-1.2,1.72a37.35,37.35,0,0,0-3.48,6.63c-.2.49-.38,1-.56,1.49a36.65,36.65,0,0,0-1.8,7.57c-.06.44-.11.88-.15,1.33-.1,1.14-.16,2.29-.16,3.46A37.44,37.44,0,0,0,11,58c.06.4.13.81.2,1.2a35.49,35.49,0,0,0,1,4.15,7.75,7.75,0,0,0-3.17-2.65.56.56,0,0,0-.64.17.54.54,0,0,0,0,.67,10.84,10.84,0,0,0,3.16,2.83A4.09,4.09,0,0,1,12,66a2.59,2.59,0,0,1-.6,1.79A13.72,13.72,0,0,0,7.67,69.9a.55.55,0,0,0-.16.66.57.57,0,0,0,.62.31,8.48,8.48,0,0,0,3.92-2.11,2.19,2.19,0,0,1,1.65.07c.89.52,1.33,3.81,1.1,8.36-.05.67-.07,1.09-.07,1.09a.56.56,0,0,0,.52.57h0a.55.55,0,0,0,.54-.51s0-.41.07-1.08a27.24,27.24,0,0,1,.73-4.65,37.93,37.93,0,0,0,4.3,5.47c.29.3.58.6.88.89a37.58,37.58,0,0,0,7.38,5.64c.42.25.85.49,1.28.72A37.43,37.43,0,0,0,48.1,89.75h.18a37.44,37.44,0,0,0,17.64-4.42c.43-.23.85-.47,1.28-.72A37.58,37.58,0,0,0,74.58,79c.3-.29.59-.59.87-.89a37.33,37.33,0,0,0,6.27-8.81c.18-.35.36-.71.53-1.06a36.91,36.91,0,0,0,2.58-7.5,43.26,43.26,0,0,0,.06,6.21.54.54,0,0,0,.52.49h0A.56.56,0,0,0,86,67a22.56,22.56,0,0,0,0-7.23c.33-3,1.11-4.83,2.24-5.37a4,4,0,0,1,3.71,0,6,6,0,0,0,2.19,1.74.55.55,0,0,0,.64-.85,7.42,7.42,0,0,0-2.11-1.76A8.82,8.82,0,0,1,91,49.46a4.07,4.07,0,0,1,.72-3.25C94.34,46.46,95.75,43.73,95.8,43.61Zm-16.41-10A35.79,35.79,0,0,1,81.69,38c-1.2-.4-2.5-.77-3.89-1.13a37.12,37.12,0,0,0-1.61-3.5s0,0,0,0a2.44,2.44,0,0,1,1.07-.23A5.49,5.49,0,0,1,79.39,33.57ZM75.91,52.45a18.51,18.51,0,0,0-3.34.49c0-.21,0-.42,0-.63a58.3,58.3,0,0,0-.39-6.67c2.32.37,4.48.79,6.5,1.25A4.1,4.1,0,0,1,79,49.66C78.66,50.8,77.62,51.74,75.91,52.45Zm3.63,1.39c0,.67-.05,1.33-.1,2-1-.28-2.06-.55-3.17-.81-.45-.1-.91-.21-1.38-.3l-1.48-.31-.24,0a17.07,17.07,0,0,0,3-.84h.63A11.48,11.48,0,0,1,79.54,53.84Zm-1.44-10a24.36,24.36,0,0,0-3.66-3.69.55.55,0,0,0-.81.71,11.6,11.6,0,0,0,3.75,3.84c.19.25.37.52.55.8-1.24-.27-2.53-.53-3.88-.76l-1.47-.25L72,44.41a52.47,52.47,0,0,0-1.74-7.91c1.2.19,2.34.41,3.44.63a14.56,14.56,0,0,0,0,1.76.54.54,0,0,0,.46.5h.09a.58.58,0,0,0,.51-.35,9.67,9.67,0,0,0,.44-1.6c.59.13,1.18.26,1.73.4a38.61,38.61,0,0,1,1.77,6.24A3.76,3.76,0,0,1,78.1,43.84ZM72,30.32a2.07,2.07,0,0,1-.89,1.07,6.75,6.75,0,0,0-2.52.38c-.47-1.09-1-2.15-1.49-3.15,1.76.28,3.39.59,4.93.93A1.8,1.8,0,0,1,72,30.32Zm1,2.78a2.7,2.7,0,0,1,1.16,1.5A9,9,0,0,0,73.83,36c-1.27-.26-2.57-.5-4-.72-.22-.67-.47-1.31-.72-1.95a8.57,8.57,0,0,0,2.16-.76A3.89,3.89,0,0,1,73,33.1Zm-3.9,3.2a51,51,0,0,1,1.81,7.93c-2.83-.4-5.83-.74-9-1-.25-2.77-.61-5.41-1.08-7.89C63.73,35.6,66.49,35.92,69.05,36.3ZM61.13,54c-.05,3.16-.24,6.23-.58,9.19-2.35-.23-4.76-.38-7.19-.48.11-2.94.18-6,.19-9.14C56.19,53.61,58.72,53.76,61.13,54ZM60.41,64.3a73.2,73.2,0,0,1-1.72,9.12c-1.94-.21-3.94-.35-6-.44.25-2.83.45-5.9.58-9.12Q57,64,60.41,64.3Zm1.15.11c3,.3,5.76.7,8.27,1.17a44.9,44.9,0,0,1-3.32,9.06c-.55-.12-1.11-.24-1.69-.35-1.57-.29-3.23-.54-4.95-.74A75,75,0,0,0,61.56,64.41Zm.13-1.15c.33-2.92.52-6,.58-9.2,2.74.26,5.32.58,7.72,1l1.37.23a54,54,0,0,1-1.26,9.21C67.47,64,64.64,63.56,61.69,63.26ZM75.25,34.62c0-.13.1-.24.15-.35q.55,1.08,1,2.22l-1.06-.22A6.18,6.18,0,0,0,75.25,34.62ZM75,26.7A6,6,0,0,0,76,25a7.9,7.9,0,0,0,2,3,3.19,3.19,0,0,0,.56.37,3.32,3.32,0,0,0-.3,2.1,6.65,6.65,0,0,0,.54,1.76,4.6,4.6,0,0,0-3,.11,2.59,2.59,0,0,0-1.07,1,3.76,3.76,0,0,0-1.16-1.12,4.92,4.92,0,0,0-1.09-.51,2.69,2.69,0,0,0,.57-1,3.34,3.34,0,0,0-.37-2.52A3.23,3.23,0,0,0,75,26.7Zm-7-4.81a36.94,36.94,0,0,1,5.69,4.58,1.61,1.61,0,0,1-1.72.45,34.66,34.66,0,0,0-5.32-5.37ZM68.81,25a.56.56,0,0,0,0,.42,7.16,7.16,0,0,0,2.22,2.28c.12.16.25.35.37.54-1.63-.33-3.33-.63-5.11-.89A30.82,30.82,0,0,0,61,20.51c1.05.15,2.05.31,3,.48A32.84,32.84,0,0,1,68.81,25ZM61.3,19.34l-1.86-.23a23,23,0,0,0-2.19-1.56A29.16,29.16,0,0,1,61.3,19.34Zm-2.2.93a28.17,28.17,0,0,1,5.83,6.88c-2.09-.27-4.25-.5-6.45-.67a31.26,31.26,0,0,0-3.12-6.55C56.65,20,57.9,20.14,59.1,20.27ZM57.63,27.6a56.53,56.53,0,0,1,1.73,6.46L57,33.91c-1.35-.07-2.73-.13-4.13-.17-.17-2.27-.37-4.42-.61-6.4C54.13,27.39,55.91,27.48,57.63,27.6ZM52.25,42.77c-1.33,0-2.69-.05-4-.05s-2.72,0-4.06.05c.09-2.74.23-5.37.4-7.86q1.13,0,2.28,0h2.75c.77,0,1.53,0,2.28,0C52,37.4,52.16,40,52.25,42.77Zm-.49-9.05-2.21,0H46.84l-2.21,0c.18-2.28.38-4.43.62-6.4,1,0,2,0,3,0s2,0,2.94,0C51.38,29.29,51.59,31.44,51.76,33.72ZM48.2,16s.57.11,1.31,2.49H46.88C47.62,16.12,48.19,16,48.2,16Zm-4,10.14c-1.7.05-3.39.13-5.06.24a27.49,27.49,0,0,1,3.31-6.55c.93-.05,1.89-.09,2.87-.12A62.32,62.32,0,0,0,44.25,26.15ZM20,36.49a37.55,37.55,0,0,1,3.71-6.78q2.61-.62,5.67-1.09a43.94,43.94,0,0,0-2.82,6.61Q23,35.79,20,36.49Zm5.23,28.18c-1.51.31-2.95.64-4.3,1l-.13,0a18.52,18.52,0,0,1,1.63-2.63,7,7,0,0,0,2.07-2.36C24.65,62.07,24.89,63.39,25.18,64.67ZM27.34,36.3c2.56-.38,5.32-.7,8.25-.94-.47,2.48-.83,5.12-1.08,7.89-3.15.24-6.15.58-9,1A51.29,51.29,0,0,1,27.34,36.3Zm8.22,8.06c2.38-.17,4.84-.3,7.4-.37-.08,2.7-.12,5.49-.12,8.32v0q-3.93.14-7.59.44v-.46C35.25,49.6,35.36,47,35.56,44.36Zm7.28,9.17c0,3.13.08,6.2.19,9.14-2.43.1-4.84.25-7.19.48-.33-2.95-.53-6-.58-9.19C37.67,53.76,40.2,53.61,42.84,53.53ZM39.37,33.91,37,34.06a54.51,54.51,0,0,1,1.74-6.46c1.71-.12,3.49-.21,5.33-.26-.24,2-.44,4.13-.61,6.4C42.09,33.78,40.72,33.84,39.37,33.91ZM43.8,16.67a13.61,13.61,0,0,0-1.89,2c-.93.06-1.85.13-2.77.21A17.29,17.29,0,0,1,43.8,16.67Zm-4.66.88A23,23,0,0,0,37,19.11c-.62.07-1.24.14-1.85.23A28.53,28.53,0,0,1,39.14,17.55Zm-1.85,2.72c1.2-.13,2.45-.25,3.74-.34a30.77,30.77,0,0,0-3.11,6.55c-2.21.17-4.37.4-6.46.67A28.39,28.39,0,0,1,37.29,20.27ZM20.22,29.05c.26-.31.53-.62.8-.92a36.65,36.65,0,0,1,7.31-6.24l1.35-.34A35.35,35.35,0,0,0,23,28.66l-1,.25a7.11,7.11,0,0,0-1.48.4l-.63.18ZM23,55.63l.92-.17c.07,1.34.2,2.66.37,4a.56.56,0,0,0-.47.17s-1.09,1.2-2.19,2.7a4.79,4.79,0,0,1-3.05.75l-.35,0a41.17,41.17,0,0,1-1.14-6C18.86,56.53,20.83,56.05,23,55.63ZM14.1,39.41c1.21-.43,2.53-.84,4-1.22A40.78,40.78,0,0,0,16.13,46c-1.43.35-2.78.72-4,1.11A36.2,36.2,0,0,1,14.1,39.41Zm1.84,18h0a43,43,0,0,0,.9,4.86A4.27,4.27,0,0,1,16,60.48,23,23,0,0,0,15.94,57.38Zm-3.85.11a36.83,36.83,0,0,1-.37-5.18,37.93,37.93,0,0,1,.2-3.86c1.25-.4,2.6-.79,4-1.15a43.63,43.63,0,0,0-.29,5c0,1.3.05,2.59.17,3.85l-.09,0a.54.54,0,0,0-.46-.27.55.55,0,0,0-.55.48.89.89,0,0,0,0,.13C13.8,56.84,12.9,57.15,12.09,57.49Zm2.56.32a11.29,11.29,0,0,0,.26,2.78c-.11,1.74-.53,2.84-1.14,3l-.19,0a36,36,0,0,1-1.3-5C13,58.38,13.81,58.09,14.65,57.81Zm2.57,11.1a6.49,6.49,0,0,0-1.44,2.64c-.22-1.75-.67-3.17-1.52-3.67a2.59,2.59,0,0,0-1.36-.34h-.06A3.69,3.69,0,0,0,13.12,66a4.84,4.84,0,0,0-.18-1.2,2.76,2.76,0,0,0,1.15-.09,2.7,2.7,0,0,0,1.63-2.12,3.5,3.5,0,0,0,2.77,1.59,6.36,6.36,0,0,0,2-.16,8,8,0,0,0-1.35,3.33,2.14,2.14,0,0,0,.12.87A2.93,2.93,0,0,0,17.22,68.91Zm3.55,1a15.38,15.38,0,0,0,4.82,1.68.54.54,0,0,0,.61-.35.56.56,0,0,0-.23-.66,19.67,19.67,0,0,0-5.39-2.23,1.27,1.27,0,0,1-.37-.93,1.57,1.57,0,0,1,.05-.3l.61-.19,1.37-.37c.47-.12,1-.24,1.45-.35l1.76-.38a46.25,46.25,0,0,0,3.31,9.09l-.65.16a33.94,33.94,0,0,0-3.55,1.12A36.35,36.35,0,0,1,20.77,69.88ZM30.47,84a36.7,36.7,0,0,1-7.67-5.69,14.25,14.25,0,0,1,1.46-.7,34.44,34.44,0,0,0,6.51,6.27Zm-.59-9.39a44.9,44.9,0,0,1-3.32-9.06c2.51-.47,5.28-.87,8.27-1.17a73,73,0,0,0,1.7,9.14c-1.73.2-3.39.45-5,.74C31,74.4,30.43,74.51,29.88,74.64Zm3.52,9.68c.55-.15,1.12-.29,1.73-.42a22.79,22.79,0,0,0,4,3.17A28.83,28.83,0,0,1,33.4,84.32Zm5.77-6.13c-.42-1.14-.8-2.35-1.16-3.6,1.82-.19,3.74-.34,5.76-.42.14,1.5.3,2.94.48,4.29.14,1.14.3,2.17.45,3.09-1.36.07-2.68.16-4,.29A36,36,0,0,1,39.17,78.19ZM41.35,83c1.15-.11,2.34-.19,3.56-.24a22.25,22.25,0,0,0,1.58,5.54C44.68,87.56,42.92,85.74,41.35,83Zm6.85,5.63s-1.05-.2-2.14-5.91c.71,0,1.42,0,2.14,0s1.42,0,2.13,0C49.24,88.41,48.21,88.61,48.2,88.61ZM51,78.31c-.16,1.2-.32,2.26-.48,3.2-.77,0-1.56,0-2.35,0s-1.57,0-2.34,0c-.16-.94-.32-2-.48-3.2s-.32-2.71-.47-4.18c1.08,0,2.17,0,3.29,0s2.22,0,3.29,0C51.35,75.6,51.19,77,51,78.31ZM48.2,72.88c-1.13,0-2.27,0-3.4.06-.25-2.83-.45-5.89-.59-9.12,1.3,0,2.63,0,4,0s2.69,0,4,0c-.14,3.23-.34,6.29-.59,9.12Q49.9,72.88,48.2,72.88Zm3.95,5.58c.17-1.35.33-2.79.47-4.29q3,.14,5.76.42c-.36,1.25-.74,2.46-1.16,3.6a33.06,33.06,0,0,1-1.57,3.65c-1.28-.13-2.6-.22-4-.28C51.84,80.63,52,79.6,52.15,78.46Zm4.15,4.65h.08c1,.11,1.89.24,2.78.39l.76.13A19,19,0,0,1,52.59,88,16.71,16.71,0,0,0,56.3,83.11Zm1,4a23.22,23.22,0,0,0,4-3.17c.6.13,1.18.27,1.72.42A28.56,28.56,0,0,1,57.25,87.07Zm5.86-3.95-.88-.22A33.41,33.41,0,0,0,67.05,76a37,37,0,0,1,4,1.18,33.4,33.4,0,0,1-6.72,6.26C63.92,83.34,63.52,83.23,63.11,83.12Zm2.82.91-.31-.12a34.44,34.44,0,0,0,6.51-6.27c.54.23,1,.46,1.46.7A36.9,36.9,0,0,1,65.93,84ZM76.77,66l-1.26-.36c-1.35-.37-2.79-.7-4.3-1a54.22,54.22,0,0,0,1.28-9.21l.92.17c2.15.42,4.12.9,5.91,1.41a40.19,40.19,0,0,1-2.12,9.14Zm4.46,1.66c-.89-.41-1.88-.8-3-1.17a41.49,41.49,0,0,0,2.15-9.16c1.35.42,2.58.86,3.68,1.31A36.27,36.27,0,0,1,81.23,67.7Zm-.68-11.54c.06-.65.09-1.31.11-2a7.54,7.54,0,0,1,1.37.66,5.81,5.81,0,0,1,2.17,2.58C83.09,57,81.87,56.56,80.55,56.16ZM91,52.92a5.22,5.22,0,0,0-3.2.46q-1.71.81-2.47,3.92a7,7,0,0,0-2.72-3.37,10,10,0,0,0-4.47-1.44A4.8,4.8,0,0,0,80.06,50a5.78,5.78,0,0,0-1-4.68c1.64.22,3.16-.54,4.51-2.26a10.23,10.23,0,0,0,1.92-3.9c1.24,3,2.51,5,3.79,6a5.86,5.86,0,0,0,1.29.77,5.18,5.18,0,0,0-.69,3.73A10.9,10.9,0,0,0,91,52.92Z" transform="translate(-7.46 -14.87)"/><path d="M64.47,19.84l-.16,0c-.11-.07-.21-.15-.32-.21C64.15,19.67,64.31,19.76,64.47,19.84Z" transform="translate(-7.46 -14.87)"/><path d="M32.4,19.6l-.32.21-.16,0Z" transform="translate(-7.46 -14.87)"/><path d="M31.89,84.78l.09,0,.42.28Z" transform="translate(-7.46 -14.87)"/><path d="M64,85l.43-.28.08,0Z" transform="translate(-7.46 -14.87)"/></svg>